<svg xmlns="http://www.w3.org/2000/svg" viewBox="0 0 98 98" fill="#FFF">
  <path d="M81.7 98H21.8A21.851 21.851 0 010 76.2V10.9A10.926 10.926 0 0110.9 0h54.4a10.926 10.926 0 0110.9 10.9h10.899a10.926 10.926 0 0110.9 10.9v59.9A16.303 16.303 0 0181.7 98M65.3 81.7V10.9H10.9v65.3a10.925 10.925 0 0010.9 10.899h44.5a14.334 14.334 0 01-1-5.4M27.2 65.3H49a5.4 5.4 0 110 10.8H27.2a5.377 5.377 0 01-5.4-5.4 5.442 5.442 0 015.4-5.4m0-21.7H49a5.4 5.4 0 110 10.8H27.2a5.4 5.4 0 110-10.8m0-21.8H49a5.4 5.4 0 010 10.8H27.2a5.4 5.4 0 010-10.8m49 59.9a5.4 5.4 0 0010.8 0V21.8H76.2z"/>
</svg>
